<svg aria-hidden="true" style="position: absolute; width: 0; height: 0; overflow: hidden;" version="1.1" xmlns="http://www.w3.org/2000/svg" xmlns:xlink="http://www.w3.org/1999/xlink">
<defs>
<symbol id="icon-logo" viewBox="0 0 51 32">
<path d="M22.836 4.373c-0.098 0.089-0.124 0.267-0.098 0.711 0.036 0.578 0.044 0.604 0.258 0.604 0.133 0 0.32-0.098 0.436-0.231l0.213-0.222 0.231 0.178c0.133 0.107 0.293 0.187 0.356 0.187 0.107 0 0.124 0.427 0.124 2.382v2.382l-0.267 0.258c-0.142 0.142-0.276 0.24-0.276 0.213-0.009-0.018-0.027-0.24-0.036-0.489-0.009-0.24-0.044-0.8-0.080-1.244-0.044-0.622-0.027-0.836 0.071-1.013 0.356-0.587 0.356-0.613 0.231-1.093-0.16-0.667-0.213-0.702-0.267-0.151-0.036 0.427-0.071 0.498-0.284 0.569-0.178 0.062-0.293 0.044-0.462-0.071-0.196-0.124-0.231-0.213-0.24-0.569v-0.418l-0.133 0.4c-0.169 0.542-0.16 0.862 0.044 1.147 0.16 0.213 0.169 0.364 0.124 2.116l-0.053 1.884-0.507 0.489v-1.093c0-1.004-0.018-1.102-0.196-1.28-0.196-0.187-0.204-0.258-0.178-1.289 0.018-0.676 0.053-1.076 0.107-1.040 0.053 0.027 0.089-0.009 0.089-0.080 0-0.107-0.089-0.142-0.311-0.142-0.302 0-0.409 0.107-0.222 0.222 0.142 0.089 0.116 2.151-0.036 2.24-0.267 0.16-0.302 0.462-0.311 2.587 0 1.182 0.018 2.151 0.044 2.151 0.036 0 0.844-0.764 1.813-1.689 0.96-0.933 1.787-1.689 1.822-1.689s0.507 0.427 1.049 0.942l0.996 0.933 0.027-2.276c0.018-2.222 0.018-2.276-0.178-2.533-0.204-0.276-0.169-0.4 0.142-0.462 0.098-0.009 0.187-0.080 0.213-0.142 0.027-0.080-0.142-0.107-0.64-0.107-0.542 0-0.676 0.027-0.676 0.133 0 0.071 0.071 0.133 0.16 0.133 0.080 0 0.204 0.036 0.276 0.080 0.089 0.062 0.089 0.107-0.044 0.267-0.142 0.16-0.178 0.391-0.213 1.387l-0.044 1.2-0.284-0.276-0.293-0.267v-2.347c0-1.289 0.036-2.444 0.080-2.569 0.053-0.116 0.16-0.231 0.249-0.249 0.258-0.053 0.747 0.080 1.022 0.284 0.293 0.213 0.311 0.151 0.071-0.24-0.356-0.587-1.129-0.907-2.196-0.916-0.462 0-0.578 0.027-0.667 0.178-0.062 0.098-0.178 0.178-0.249 0.178-0.080 0-0.204-0.080-0.293-0.178-0.169-0.204-0.329-0.222-0.516-0.071zM25.92 4.604c0.196 0.098 0.444 0.284 0.56 0.409 0.276 0.293 0.187 0.302-0.124 0.018-0.347-0.329-0.96-0.498-1.751-0.498-0.507 0-0.684-0.027-0.64-0.098 0.098-0.169 1.547-0.036 1.956 0.169zM23.324 4.578c0.027 0.080 0.16 0.133 0.311 0.133 0.142 0 0.293 0.036 0.32 0.089 0.098 0.16-0.48 0.089-0.64-0.080-0.089-0.089-0.24-0.187-0.338-0.213-0.142-0.036-0.124-0.044 0.053-0.053 0.142-0.009 0.258 0.044 0.293 0.124zM24.711 7.831c0 1.52-0.027 2.293-0.089 2.258-0.053-0.036-0.089-0.889-0.089-2.258 0-1.938 0.027-2.32 0.151-2.32 0.018 0 0.027 1.040 0.027 2.32zM23.244 7.556c0.098 0 0.293-0.062 0.436-0.133 0.267-0.142 0.267-0.142 0.098 0.044-0.222 0.249-0.764 0.24-0.987-0.018l-0.169-0.196 0.222 0.151c0.116 0.080 0.302 0.151 0.4 0.151zM26.702 8.604c0.018 0.036-0.116 0.062-0.302 0.062s-0.32-0.027-0.302-0.062c0.027-0.044 0.16-0.071 0.302-0.071s0.276 0.027 0.302 0.071zM21.938 10.071c0.071 0.089 0.018 0.107-0.258 0.107-0.311 0-0.338-0.009-0.204-0.107 0.089-0.062 0.204-0.116 0.267-0.116 0.053 0 0.142 0.053 0.196 0.116z"></path>
<path d="M25.778 7.022v0.533h1.333v-1.067h-0.347c-0.347 0-0.356 0.009-0.391 0.329l-0.027 0.338-0.080-0.311c-0.071-0.302-0.080-0.302-0.133-0.089l-0.062 0.222-0.071-0.249c-0.107-0.409-0.222-0.267-0.222 0.293z"></path>
<path d="M23.849 13.956c0 0.222 0.018 0.311 0.036 0.196 0.018-0.107 0.018-0.284 0-0.4-0.018-0.107-0.036-0.018-0.036 0.204z"></path>
<path d="M24.293 13.956c0 0.222 0.018 0.311 0.036 0.196 0.018-0.107 0.018-0.284 0-0.4-0.018-0.107-0.036-0.018-0.036 0.204z"></path>
<path d="M24.56 13.956c0 0.222 0.018 0.311 0.036 0.196 0.018-0.107 0.018-0.284 0-0.4-0.018-0.107-0.036-0.018-0.036 0.204z"></path>
<path d="M25.093 13.956c0 0.222 0.018 0.311 0.036 0.196 0.018-0.107 0.018-0.284 0-0.4-0.018-0.107-0.036-0.018-0.036 0.204z"></path>
<path d="M25.716 13.778c-0.062 0.151-0.062 0.267 0.009 0.382 0.089 0.151 0.098 0.151 0.124-0.027 0.018-0.098 0.018-0.267-0.009-0.382-0.036-0.196-0.036-0.196-0.124 0.027z"></path>
<path d="M24 14c0 0.169 0.036 0.311 0.071 0.311s0.071-0.142 0.080-0.311c0-0.169-0.027-0.311-0.071-0.311s-0.080 0.142-0.080 0.311z"></path>
<path d="M25.28 14.204c0.036 0.027 0.124 0.062 0.196 0.071 0.080 0.009 0.116 0 0.089-0.036-0.036-0.027-0.124-0.062-0.196-0.071-0.080-0.009-0.116 0-0.089 0.036z"></path>
<path d="M23.822 15.156v0.4h0.8v-0.8h-0.8v0.4zM24.498 15.156c0.009 0.293-0.009 0.311-0.267 0.311-0.24 0-0.284-0.036-0.302-0.222-0.018-0.267 0.116-0.293 0.187-0.036 0.036 0.116 0.089 0.16 0.151 0.124 0.080-0.053 0.080-0.089-0.009-0.142-0.107-0.062-0.098-0.080 0.009-0.080 0.071-0.009 0.018-0.062-0.133-0.133l-0.267-0.116 0.311-0.009c0.293-0.009 0.311 0.009 0.32 0.302z"></path>
<path d="M25.067 15.156v0.4h0.8v-0.8h-0.8v0.4zM25.778 14.924c0 0.044-0.062 0.098-0.133 0.133-0.071 0.027-0.133 0.009-0.133-0.044s-0.062-0.036-0.133 0.044c-0.196 0.187-0.16 0.24 0.098 0.142 0.32-0.124 0.364-0.107 0.16 0.044-0.169 0.133-0.169 0.133 0.009 0.071 0.098-0.027 0.142-0.018 0.107 0.018-0.036 0.044-0.187 0.089-0.329 0.098-0.249 0.018-0.267 0-0.267-0.284s0.018-0.302 0.311-0.302c0.169 0 0.311 0.036 0.311 0.080z"></path>
<path d="M12.267 22.267v1.378h0.711v-1.067h1.156v1.067h0.711v-2.756h-0.711v1.067h-1.156v-1.067h-0.711v1.378z"></path>
<path d="M16.231 21.173c-0.062 0.16-0.329 0.764-0.578 1.333s-0.453 1.058-0.453 1.084c0 0.027 0.16 0.053 0.364 0.053 0.32 0 0.373-0.027 0.462-0.267 0.098-0.258 0.116-0.267 0.711-0.267s0.613 0.009 0.711 0.267c0.089 0.24 0.142 0.267 0.48 0.267 0.213 0 0.382-0.027 0.382-0.053 0-0.036-0.267-0.658-0.587-1.378l-0.587-1.324h-0.391c-0.356 0-0.4 0.027-0.516 0.284zM17.067 22.462c0 0.071-0.133 0.116-0.356 0.116-0.196 0-0.356-0.018-0.356-0.036s0.089-0.222 0.196-0.462l0.187-0.436 0.16 0.356c0.089 0.196 0.169 0.409 0.169 0.462z"></path>
<path d="M18.667 22.267v1.378h0.702l0.053-1.458 0.604 0.729c0.542 0.658 0.631 0.729 0.907 0.729h0.311v-2.756h-0.702l-0.027 0.729-0.027 0.738-0.613-0.738c-0.542-0.649-0.649-0.729-0.916-0.729h-0.293v1.378z"></path>
<path d="M21.867 22.267v1.378h0.871c0.658 0 0.951-0.044 1.236-0.178 0.987-0.444 1.004-1.884 0.027-2.382-0.329-0.16-0.533-0.196-1.262-0.196h-0.871v1.378zM23.707 21.707c0.258 0.293 0.311 0.507 0.196 0.844-0.116 0.364-0.302 0.471-0.853 0.471h-0.427v-1.511h0.453c0.356 0 0.489 0.044 0.631 0.196z"></path>
<path d="M25.244 21.76c0.489 0.809 0.533 0.933 0.533 1.387v0.507l0.756-0.053 0.009-0.489c0.009-0.427 0.080-0.596 0.516-1.316 0.276-0.453 0.498-0.844 0.498-0.862 0-0.027-0.16-0.044-0.356-0.044-0.338 0-0.364 0.027-0.631 0.489-0.151 0.267-0.302 0.507-0.347 0.533-0.036 0.027-0.204-0.187-0.373-0.471-0.293-0.489-0.311-0.507-0.72-0.533l-0.418-0.027 0.533 0.88z"></path>
<path d="M27.822 22.267v1.378h0.702l0.027-0.693 0.027-0.684 0.356 0.551c0.213 0.347 0.418 0.56 0.516 0.56 0.089 0 0.258-0.169 0.4-0.409 0.133-0.231 0.311-0.498 0.391-0.604 0.151-0.178 0.151-0.16 0.16 0.551v0.738l0.338-0.027 0.329-0.027-0.036-2.667-0.302-0.027c-0.293-0.027-0.329 0-0.604 0.489-0.16 0.284-0.373 0.649-0.48 0.809l-0.196 0.293-0.48-0.8c-0.471-0.782-0.489-0.8-0.809-0.809h-0.338v1.378z"></path>
<path d="M32.018 22.107c-0.293 0.676-0.569 1.298-0.604 1.387-0.044 0.124 0 0.151 0.338 0.151 0.347 0 0.4-0.027 0.489-0.267 0.098-0.258 0.116-0.267 0.711-0.267s0.613 0.009 0.711 0.267c0.089 0.24 0.133 0.267 0.498 0.267h0.409l-0.613-1.36-0.613-1.351-0.782-0.053-0.542 1.227zM33.111 22.009c0.204 0.489 0.178 0.569-0.178 0.569-0.169 0-0.311-0.036-0.311-0.089 0-0.107 0.276-0.8 0.32-0.8 0.018 0 0.098 0.142 0.169 0.32z"></path>
<path d="M34.844 22.267v1.378h0.702l0.027-0.738 0.027-0.729 0.613 0.729c0.542 0.658 0.649 0.738 0.916 0.738h0.293l0.009-1.156c0.009-0.64 0.018-1.244 0.018-1.36 0.009-0.169-0.036-0.196-0.356-0.222l-0.373-0.027-0.027 0.729-0.027 0.738-0.604-0.729c-0.542-0.649-0.64-0.729-0.916-0.729h-0.302v1.378z"></path>
</symbol>
<symbol id="icon-mail" viewBox="0 0 32 32">
<path d="M29 4h-26c-1.65 0-3 1.35-3 3v20c0 1.65 1.35 3 3 3h26c1.65 0 3-1.35 3-3v-20c0-1.65-1.35-3-3-3zM12.461 17.199l-8.461 6.59v-15.676l8.461 9.086zM5.512 8h20.976l-10.488 7.875-10.488-7.875zM12.79 17.553l3.21 3.447 3.21-3.447 6.58 8.447h-19.579l6.58-8.447zM19.539 17.199l8.461-9.086v15.676l-8.461-6.59z"></path>
</symbol>
<symbol id="icon-location" viewBox="0 0 32 32">
<path d="M16 0c-5.523 0-10 4.477-10 10 0 10 10 22 10 22s10-12 10-22c0-5.523-4.477-10-10-10zM16 16c-3.314 0-6-2.686-6-6s2.686-6 6-6 6 2.686 6 6-2.686 6-6 6z"></path>
</symbol>
<symbol id="icon-phone" viewBox="0 0 32 32">
<path d="M23 0h-14c-1.65 0-3 1.35-3 3v26c0 1.65 1.35 3 3 3h14c1.65 0 3-1.35 3-3v-26c0-1.65-1.35-3-3-3zM12 1.5h8v1h-8v-1zM16 30c-1.105 0-2-0.895-2-2s0.895-2 2-2 2 0.895 2 2-0.895 2-2 2zM24 24h-16v-20h16v20z"></path>
</symbol>
<symbol id="icon-tool1" viewBox="0 0 32 32">
<path d="M31.342 25.559l-14.392-12.336c0.67-1.259 1.051-2.696 1.051-4.222 0-4.971-4.029-9-9-9-0.909 0-1.787 0.135-2.614 0.386l5.2 5.2c0.778 0.778 0.778 2.051 0 2.828l-3.172 3.172c-0.778 0.778-2.051 0.778-2.828 0l-5.2-5.2c-0.251 0.827-0.386 1.705-0.386 2.614 0 4.971 4.029 9 9 9 1.526 0 2.963-0.38 4.222-1.051l12.336 14.392c0.716 0.835 1.938 0.882 2.716 0.104l3.172-3.172c0.778-0.778 0.731-2-0.104-2.716z"></path>
</symbol>
<symbol id="icon-tool2" viewBox="0 0 32 32">
<path d="M31.562 25.905l-9.423-9.423c-0.583-0.583-1.538-0.583-2.121 0l-0.707 0.707-5.75-5.75 9.439-9.439h-10l-4.439 4.439-0.439-0.439h-2.121v2.121l0.439 0.439-6.439 6.439 5 5 6.439-6.439 5.75 5.75-0.707 0.707c-0.583 0.583-0.583 1.538 0 2.121l9.423 9.423c0.583 0.583 1.538 0.583 2.121 0l3.535-3.535c0.583-0.583 0.583-1.538 0-2.121z"></path>
</symbol>
<symbol id="icon-arrow-up" viewBox="0 0 32 32">
<path d="M0 16c0 8.837 7.163 16 16 16s16-7.163 16-16-7.163-16-16-16-16 7.163-16 16zM29 16c0 7.18-5.82 13-13 13s-13-5.82-13-13 5.82-13 13-13 13 5.82 13 13z"></path>
<path d="M22.086 20.914l2.829-2.829-8.914-8.914-8.914 8.914 2.828 2.828 6.086-6.086z"></path>
</symbol>
</defs>
</svg>
